<svg id="visual" viewBox="0 0 960 540" width="960" height="540" xmlns="http://www.w3.org/2000/svg" xmlns:xlink="http://www.w3.org/1999/xlink" version="1.1"><path d="M0 44L14.5 49.5C29 55 58 66 87.2 65.2C116.3 64.3 145.7 51.7 174.8 47.2C204 42.7 233 46.3 262 45.3C291 44.3 320 38.7 349 37.7C378 36.7 407 40.3 436.2 42.2C465.3 44 494.7 44 523.8 51.2C553 58.3 582 72.7 611 74.5C640 76.3 669 65.7 698 59.5C727 53.3 756 51.7 785.2 49.8C814.3 48 843.7 46 872.8 52.2C902 58.3 931 72.7 945.5 79.8L960 87L960 0L945.5 0C931 0 902 0 872.8 0C843.7 0 814.3 0 785.2 0C756 0 727 0 698 0C669 0 640 0 611 0C582 0 553 0 523.8 0C494.7 0 465.3 0 436.2 0C407 0 378 0 349 0C320 0 291 0 262 0C233 0 204 0 174.8 0C145.7 0 116.3 0 87.2 0C58 0 29 0 14.5 0L0 0Z" fill="#8c5a99"></path><path d="M0 147L14.5 153.3C29 159.7 58 172.3 87.2 175C116.3 177.7 145.7 170.3 174.8 163C204 155.7 233 148.3 262 143C291 137.7 320 134.3 349 146.2C378 158 407 185 436.2 200.2C465.3 215.3 494.7 218.7 523.8 231.2C553 243.7 582 265.3 611 269.8C640 274.3 669 261.7 698 255.3C727 249 756 249 785.2 259.8C814.3 270.7 843.7 292.3 872.8 293.3C902 294.3 931 274.7 945.5 264.8L960 255L960 85L945.5 77.8C931 70.7 902 56.3 872.8 50.2C843.7 44 814.3 46 785.2 47.8C756 49.7 727 51.3 698 57.5C669 63.7 640 74.3 611 72.5C582 70.7 553 56.3 523.8 49.2C494.7 42 465.3 42 436.2 40.2C407 38.3 378 34.7 349 35.7C320 36.7 291 42.3 262 43.3C233 44.3 204 40.7 174.8 45.2C145.7 49.7 116.3 62.3 87.2 63.2C58 64 29 53 14.5 47.5L0 42Z" fill="#674f83"></path><path d="M0 395L14.5 385.2C29 375.3 58 355.7 87.2 348.5C116.3 341.3 145.7 346.7 174.8 359.2C204 371.7 233 391.3 262 396.7C291 402 320 393 349 381.3C378 369.7 407 355.3 436.2 359.8C465.3 364.3 494.7 387.7 523.8 399.3C553 411 582 411 611 398.5C640 386 669 361 698 349.3C727 337.7 756 339.3 785.2 354.7C814.3 370 843.7 399 872.8 404.5C902 410 931 392 945.5 383L960 374L960 253L945.5 262.8C931 272.7 902 292.3 872.8 291.3C843.7 290.3 814.3 268.7 785.2 257.8C756 247 727 247 698 253.3C669 259.7 640 272.3 611 267.8C582 263.3 553 241.7 523.8 229.2C494.7 216.7 465.3 213.3 436.2 198.2C407 183 378 156 349 144.2C320 132.3 291 135.7 262 141C233 146.3 204 153.7 174.8 161C145.7 168.3 116.3 175.7 87.2 173C58 170.3 29 157.7 14.5 151.3L0 145Z" fill="#484269"></path><path d="M0 471L14.5 471C29 471 58 471 87.2 474.5C116.3 478 145.7 485 174.8 486.8C204 488.7 233 485.3 262 475.5C291 465.7 320 449.3 349 445.7C378 442 407 451 436.2 461.8C465.3 472.7 494.7 485.3 523.8 492.5C553 499.7 582 501.3 611 499.5C640 497.7 669 492.3 698 480.7C727 469 756 451 785.2 453.7C814.3 456.3 843.7 479.7 872.8 484.2C902 488.7 931 474.3 945.5 467.2L960 460L960 372L945.5 381C931 390 902 408 872.8 402.5C843.7 397 814.3 368 785.2 352.7C756 337.3 727 335.7 698 347.3C669 359 640 384 611 396.5C582 409 553 409 523.8 397.3C494.7 385.7 465.3 362.3 436.2 357.8C407 353.3 378 367.7 349 379.3C320 391 291 400 262 394.7C233 389.3 204 369.7 174.8 357.2C145.7 344.7 116.3 339.3 87.2 346.5C58 353.7 29 373.3 14.5 383.2L0 393Z" fill="#30344d"></path><path d="M0 541L14.5 541C29 541 58 541 87.2 541C116.3 541 145.7 541 174.8 541C204 541 233 541 262 541C291 541 320 541 349 541C378 541 407 541 436.2 541C465.3 541 494.7 541 523.8 541C553 541 582 541 611 541C640 541 669 541 698 541C727 541 756 541 785.2 541C814.3 541 843.7 541 872.8 541C902 541 931 541 945.5 541L960 541L960 458L945.5 465.2C931 472.3 902 486.7 872.8 482.2C843.7 477.7 814.3 454.3 785.2 451.7C756 449 727 467 698 478.7C669 490.3 640 495.7 611 497.5C582 499.3 553 497.7 523.8 490.5C494.7 483.3 465.3 470.7 436.2 459.8C407 449 378 440 349 443.7C320 447.3 291 463.7 262 473.5C233 483.3 204 486.7 174.8 484.8C145.7 483 116.3 476 87.2 472.5C58 469 29 469 14.5 469L0 469Z" fill="#1f2430"></path></svg>