<?xml version="1.0" encoding="iso-8859-1"?>
<!-- Uploaded to: SVG Repo, www.svgrepo.com, Generator: SVG Repo Mixer Tools -->
<svg height="800px" width="800px" version="1.1" id="Capa_1" xmlns="http://www.w3.org/2000/svg" xmlns:xlink="http://www.w3.org/1999/xlink" 
	 viewBox="0 0 512 512" xml:space="preserve">
<g>
	<path style="fill:#5C546A;" d="M264,64.154V29.997c-2.355,1.364-5.082,2.158-8,2.158c-2.918,0-5.645-0.793-8-2.158v34.158h8H264z"
		/>
	<path style="fill:#888693;" d="M206.242,408l-14.086,70.429c-0.102,0.52-0.156,1.043-0.156,1.57h128
		c0-0.527-0.055-1.051-0.156-1.57L305.758,408H256H206.242z"/>
	<path style="fill:#D5D9DE;" d="M256,408h49.758H352c13.234,0,24-10.766,24-24v-8h-96c-4.418,0-8-3.582-8-8c0-4.418,3.582-8,8-8h96
		v-8h-96c-4.418,0-8-3.582-8-8c0-4.418,3.582-8,8-8h96v-8h-96c-4.418,0-8-3.582-8-8c0-4.418,3.582-8,8-8h96V208H256V408z M272,264
		c0-8.836,7.163-16,16-16h32c8.836,0,16,7.164,16,16l0,0c0,8.836-7.163,16-16,16h-32C279.163,280,272,272.836,272,264L272,264z"/>
	<path style="fill:#B6B8BE;" d="M256,208H136v176c0,13.234,10.766,24,24,24h46.242H256V208z M136,368V240h64c8.836,0,16,7.164,16,16
		v96c0,8.836-7.164,16-16,16H136z"/>
	<path style="fill:#E5001E;" d="M256,183.997v-120h-8h-4.336c-9.883,0-19.055,4.457-25.156,12.23l-79.086,100.648
		c-0.245,0.312-0.474,0.636-0.694,0.964c-0.072,0.108-0.141,0.218-0.21,0.327c-0.144,0.227-0.281,0.457-0.413,0.69
		c-0.074,0.13-0.149,0.26-0.219,0.393c-0.134,0.253-0.259,0.512-0.38,0.772c-0.112,0.242-0.216,0.487-0.315,0.734
		c-0.068,0.167-0.136,0.334-0.198,0.504c-0.08,0.219-0.154,0.441-0.225,0.664c-0.039,0.125-0.076,0.25-0.113,0.375
		c-0.162,0.559-0.299,1.125-0.401,1.698H256z"/>
	<path style="fill:#FF4F19;" d="M256,183.997h119.747h0.005h0.013c-0.458-2.585-1.54-5.047-3.169-7.121L293.745,76.227
		c-6.102-7.773-15.273-12.23-25.156-12.23h-0.253H264h-8V183.997z"/>
	<path style="fill:#E5001E;" d="M264,29.842c4.778-2.768,8-7.923,8-13.842c0-8.836-7.164-16-16-16c-8.837,0-16,7.164-16,16
		c0,5.919,3.222,11.074,8,13.842c2.355,1.364,5.082,2.158,8,2.158C258.918,32,261.645,31.207,264,29.842z"/>
	<path style="fill:#888693;" d="M216,352v-96c0-8.836-7.164-16-16-16h-64v128h64C208.836,368,216,360.836,216,352z"/>
	<path style="fill:#888693;" d="M272,368c0,4.418,3.582,8,8,8h96v-16h-96C275.582,360,272,363.582,272,368z"/>
	<path style="fill:#888693;" d="M272,344c0,4.418,3.582,8,8,8h96v-16h-96C275.582,336,272,339.582,272,344z"/>
	<path style="fill:#888693;" d="M272,320c0,4.418,3.582,8,8,8h96v-16h-96C275.582,312,272,315.582,272,320z"/>
	<path style="fill:#5C546A;" d="M288,280h32c8.836,0,16-7.164,16-16l0,0c0-8.836-7.163-16-16-16h-32c-8.837,0-16,7.164-16,16l0,0
		C272,272.836,279.163,280,288,280z"/>
	<path style="fill:#5C546A;" d="M192,504c0,4.418,3.578,8,8,8h112c4.422,0,8-3.582,8-8v-24H192V504z"/>
	<path style="fill:#888693;" d="M256,184H136.253c-0.161,0.911-0.253,1.835-0.253,2.766V208h120V184z"/>
	<path style="fill:#B6B8BE;" d="M375.747,184H256v24h120v-21.234C376,185.835,375.908,184.911,375.747,184z"/>
</g>
</svg>