<svg id="visual" viewBox="0 0 960 540" width="960" height="540" xmlns="http://www.w3.org/2000/svg" xmlns:xlink="http://www.w3.org/1999/xlink" version="1.1"><path d="M0 325L17.8 326.7C35.7 328.3 71.3 331.7 106.8 327C142.3 322.3 177.7 309.7 213.2 305.7C248.7 301.7 284.3 306.3 320 307.5C355.7 308.7 391.3 306.3 426.8 305.2C462.3 304 497.7 304 533.2 305.5C568.7 307 604.3 310 640 313.2C675.7 316.3 711.3 319.7 746.8 325.3C782.3 331 817.7 339 853.2 338.5C888.7 338 924.3 329 942.2 324.5L960 320L960 541L942.2 541C924.3 541 888.7 541 853.2 541C817.7 541 782.3 541 746.8 541C711.3 541 675.7 541 640 541C604.3 541 568.7 541 533.2 541C497.7 541 462.3 541 426.8 541C391.3 541 355.7 541 320 541C284.3 541 248.7 541 213.2 541C177.7 541 142.3 541 106.8 541C71.3 541 35.7 541 17.8 541L0 541Z" fill="#ff9300"></path><path d="M0 368L17.8 365.2C35.7 362.3 71.3 356.7 106.8 351.8C142.3 347 177.7 343 213.2 342.8C248.7 342.7 284.3 346.3 320 344.8C355.7 343.3 391.3 336.7 426.8 337.7C462.3 338.7 497.7 347.3 533.2 349C568.7 350.7 604.3 345.3 640 346C675.7 346.7 711.3 353.3 746.8 356.7C782.3 360 817.7 360 853.2 360C888.7 360 924.3 360 942.2 360L960 360L960 541L942.2 541C924.3 541 888.7 541 853.2 541C817.7 541 782.3 541 746.8 541C711.3 541 675.7 541 640 541C604.3 541 568.7 541 533.2 541C497.7 541 462.3 541 426.8 541C391.3 541 355.7 541 320 541C284.3 541 248.7 541 213.2 541C177.7 541 142.3 541 106.8 541C71.3 541 35.7 541 17.8 541L0 541Z" fill="#ff783b"></path><path d="M0 390L17.8 387.7C35.7 385.3 71.3 380.7 106.8 380.3C142.3 380 177.7 384 213.2 387.3C248.7 390.7 284.3 393.3 320 389.2C355.7 385 391.3 374 426.8 370.3C462.3 366.7 497.7 370.3 533.2 375.5C568.7 380.7 604.3 387.3 640 388.3C675.7 389.3 711.3 384.7 746.8 385.7C782.3 386.7 817.7 393.3 853.2 393.7C888.7 394 924.3 388 942.2 385L960 382L960 541L942.2 541C924.3 541 888.7 541 853.2 541C817.7 541 782.3 541 746.8 541C711.3 541 675.7 541 640 541C604.3 541 568.7 541 533.2 541C497.7 541 462.3 541 426.8 541C391.3 541 355.7 541 320 541C284.3 541 248.7 541 213.2 541C177.7 541 142.3 541 106.8 541C71.3 541 35.7 541 17.8 541L0 541Z" fill="#ff635b"></path><path d="M0 396L17.8 400C35.7 404 71.3 412 106.8 417.2C142.3 422.3 177.7 424.7 213.2 421.2C248.7 417.7 284.3 408.3 320 407C355.7 405.7 391.3 412.3 426.8 418.5C462.3 424.7 497.7 430.3 533.2 431.5C568.7 432.7 604.3 429.3 640 428.7C675.7 428 711.3 430 746.8 426.7C782.3 423.3 817.7 414.7 853.2 408.8C888.7 403 924.3 400 942.2 398.5L960 397L960 541L942.2 541C924.3 541 888.7 541 853.2 541C817.7 541 782.3 541 746.8 541C711.3 541 675.7 541 640 541C604.3 541 568.7 541 533.2 541C497.7 541 462.3 541 426.8 541C391.3 541 355.7 541 320 541C284.3 541 248.7 541 213.2 541C177.7 541 142.3 541 106.8 541C71.3 541 35.7 541 17.8 541L0 541Z" fill="#ef5776"></path><path d="M0 438L17.8 441.3C35.7 444.7 71.3 451.3 106.8 451.2C142.3 451 177.7 444 213.2 445C248.7 446 284.3 455 320 456.7C355.7 458.3 391.3 452.7 426.8 449.8C462.3 447 497.7 447 533.2 448.7C568.7 450.3 604.3 453.7 640 452.5C675.7 451.3 711.3 445.7 746.8 446C782.3 446.3 817.7 452.7 853.2 456.7C888.7 460.7 924.3 462.3 942.2 463.2L960 464L960 541L942.2 541C924.3 541 888.7 541 853.2 541C817.7 541 782.3 541 746.8 541C711.3 541 675.7 541 640 541C604.3 541 568.7 541 533.2 541C497.7 541 462.3 541 426.8 541C391.3 541 355.7 541 320 541C284.3 541 248.7 541 213.2 541C177.7 541 142.3 541 106.8 541C71.3 541 35.7 541 17.8 541L0 541Z" fill="#d4558b"></path><path d="M0 481L17.8 481.7C35.7 482.3 71.3 483.7 106.8 482.3C142.3 481 177.7 477 213.2 475.2C248.7 473.3 284.3 473.7 320 475.5C355.7 477.3 391.3 480.7 426.8 479.8C462.3 479 497.7 474 533.2 472.7C568.7 471.3 604.3 473.7 640 473.8C675.7 474 711.3 472 746.8 471.3C782.3 470.7 817.7 471.3 853.2 470.5C888.7 469.7 924.3 467.3 942.2 466.2L960 465L960 541L942.2 541C924.3 541 888.7 541 853.2 541C817.7 541 782.3 541 746.8 541C711.3 541 675.7 541 640 541C604.3 541 568.7 541 533.2 541C497.7 541 462.3 541 426.8 541C391.3 541 355.7 541 320 541C284.3 541 248.7 541 213.2 541C177.7 541 142.3 541 106.8 541C71.3 541 35.7 541 17.8 541L0 541Z" fill="#b25797"></path><path d="M0 503L17.8 505C35.7 507 71.3 511 106.8 509.5C142.3 508 177.7 501 213.2 498.8C248.7 496.7 284.3 499.3 320 502.8C355.7 506.3 391.3 510.7 426.8 508.8C462.3 507 497.7 499 533.2 499.8C568.7 500.7 604.3 510.3 640 510.5C675.7 510.7 711.3 501.3 746.8 498.5C782.3 495.7 817.7 499.3 853.2 500.7C888.7 502 924.3 501 942.2 500.5L960 500L960 541L942.2 541C924.3 541 888.7 541 853.2 541C817.7 541 782.3 541 746.8 541C711.3 541 675.7 541 640 541C604.3 541 568.7 541 533.2 541C497.7 541 462.3 541 426.8 541C391.3 541 355.7 541 320 541C284.3 541 248.7 541 213.2 541C177.7 541 142.3 541 106.8 541C71.3 541 35.7 541 17.8 541L0 541Z" fill="#8c5a99"></path></svg>