<svg id="visual" viewBox="0 0 960 540" width="960" height="540" xmlns="http://www.w3.org/2000/svg" xmlns:xlink="http://www.w3.org/1999/xlink" version="1.1"><path d="M0 55L17.8 51.3C35.7 47.7 71.3 40.3 106.8 39.5C142.3 38.7 177.7 44.3 213.2 47.2C248.7 50 284.3 50 320 47.2C355.7 44.3 391.3 38.7 426.8 34.2C462.3 29.7 497.7 26.3 533.2 31.8C568.7 37.3 604.3 51.7 640 51.7C675.7 51.7 711.3 37.3 746.8 37.3C782.3 37.3 817.7 51.7 853.2 50.7C888.7 49.7 924.3 33.3 942.2 25.2L960 17L960 0L942.2 0C924.3 0 888.7 0 853.2 0C817.7 0 782.3 0 746.8 0C711.3 0 675.7 0 640 0C604.3 0 568.7 0 533.2 0C497.7 0 462.3 0 426.8 0C391.3 0 355.7 0 320 0C284.3 0 248.7 0 213.2 0C177.7 0 142.3 0 106.8 0C71.3 0 35.7 0 17.8 0L0 0Z" fill="#8c5a99"></path><path d="M0 114L17.8 124C35.7 134 71.3 154 106.8 154C142.3 154 177.7 134 213.2 124C248.7 114 284.3 114 320 127.5C355.7 141 391.3 168 426.8 179.8C462.3 191.7 497.7 188.3 533.2 189.3C568.7 190.3 604.3 195.7 640 192C675.7 188.3 711.3 175.7 746.8 182C782.3 188.3 817.7 213.7 853.2 219C888.7 224.3 924.3 209.7 942.2 202.3L960 195L960 15L942.2 23.2C924.3 31.3 888.7 47.7 853.2 48.7C817.7 49.7 782.3 35.3 746.8 35.3C711.3 35.3 675.7 49.7 640 49.7C604.3 49.7 568.7 35.3 533.2 29.8C497.7 24.3 462.3 27.7 426.8 32.2C391.3 36.7 355.7 42.3 320 45.2C284.3 48 248.7 48 213.2 45.2C177.7 42.3 142.3 36.7 106.8 37.5C71.3 38.3 35.7 45.7 17.8 49.3L0 53Z" fill="#73538b"></path><path d="M0 293L17.8 293.8C35.7 294.7 71.3 296.3 106.8 308C142.3 319.7 177.7 341.3 213.2 334.2C248.7 327 284.3 291 320 273.8C355.7 256.7 391.3 258.3 426.8 277.2C462.3 296 497.7 332 533.2 342C568.7 352 604.3 336 640 312.7C675.7 289.3 711.3 258.7 746.8 267.7C782.3 276.7 817.7 325.3 853.2 341.5C888.7 357.7 924.3 341.3 942.2 333.2L960 325L960 193L942.2 200.3C924.3 207.7 888.7 222.3 853.2 217C817.7 211.7 782.3 186.3 746.8 180C711.3 173.7 675.7 186.3 640 190C604.3 193.7 568.7 188.3 533.2 187.3C497.7 186.3 462.3 189.7 426.8 177.8C391.3 166 355.7 139 320 125.5C284.3 112 248.7 112 213.2 122C177.7 132 142.3 152 106.8 152C71.3 152 35.7 132 17.8 122L0 112Z" fill="#5c4b7a"></path><path d="M0 347L17.8 347C35.7 347 71.3 347 106.8 354.2C142.3 361.3 177.7 375.7 213.2 372.8C248.7 370 284.3 350 320 345.5C355.7 341 391.3 352 426.8 373.7C462.3 395.3 497.7 427.7 533.2 436.7C568.7 445.7 604.3 431.3 640 408C675.7 384.7 711.3 352.3 746.8 349.7C782.3 347 817.7 374 853.2 382C888.7 390 924.3 379 942.2 373.5L960 368L960 323L942.2 331.2C924.3 339.3 888.7 355.7 853.2 339.5C817.7 323.3 782.3 274.7 746.8 265.7C711.3 256.7 675.7 287.3 640 310.7C604.3 334 568.7 350 533.2 340C497.7 330 462.3 294 426.8 275.2C391.3 256.3 355.7 254.7 320 271.8C284.3 289 248.7 325 213.2 332.2C177.7 339.3 142.3 317.7 106.8 306C71.3 294.3 35.7 292.7 17.8 291.8L0 291Z" fill="#484269"></path><path d="M0 417L17.8 408.8C35.7 400.7 71.3 384.3 106.8 390.7C142.3 397 177.7 426 213.2 433.2C248.7 440.3 284.3 425.7 320 416.7C355.7 407.7 391.3 404.3 426.8 416.2C462.3 428 497.7 455 533.2 460.3C568.7 465.7 604.3 449.3 640 432.2C675.7 415 711.3 397 746.8 395.2C782.3 393.3 817.7 407.7 853.2 413C888.7 418.3 924.3 414.7 942.2 412.8L960 411L960 366L942.2 371.5C924.3 377 888.7 388 853.2 380C817.7 372 782.3 345 746.8 347.7C711.3 350.3 675.7 382.7 640 406C604.3 429.3 568.7 443.7 533.2 434.7C497.7 425.7 462.3 393.3 426.8 371.7C391.3 350 355.7 339 320 343.5C284.3 348 248.7 368 213.2 370.8C177.7 373.7 142.3 359.3 106.8 352.2C71.3 345 35.7 345 17.8 345L0 345Z" fill="#373856"></path><path d="M0 487L17.8 491.5C35.7 496 71.3 505 106.8 510.3C142.3 515.7 177.7 517.3 213.2 517.3C248.7 517.3 284.3 515.7 320 512.2C355.7 508.7 391.3 503.3 426.8 505.2C462.3 507 497.7 516 533.2 512.3C568.7 508.7 604.3 492.3 640 486C675.7 479.7 711.3 483.3 746.8 488.8C782.3 494.3 817.7 501.7 853.2 507C888.7 512.3 924.3 515.7 942.2 517.3L960 519L960 409L942.2 410.8C924.3 412.7 888.7 416.3 853.2 411C817.7 405.7 782.3 391.3 746.8 393.2C711.3 395 675.7 413 640 430.2C604.3 447.3 568.7 463.7 533.2 458.3C497.7 453 462.3 426 426.8 414.2C391.3 402.3 355.7 405.7 320 414.7C284.3 423.7 248.7 438.3 213.2 431.2C177.7 424 142.3 395 106.8 388.7C71.3 382.3 35.7 398.7 17.8 406.8L0 415Z" fill="#292e43"></path><path d="M0 541L17.8 541C35.7 541 71.3 541 106.8 541C142.3 541 177.7 541 213.2 541C248.7 541 284.3 541 320 541C355.7 541 391.3 541 426.8 541C462.3 541 497.7 541 533.2 541C568.7 541 604.3 541 640 541C675.7 541 711.3 541 746.8 541C782.3 541 817.7 541 853.2 541C888.7 541 924.3 541 942.2 541L960 541L960 517L942.2 515.3C924.3 513.7 888.7 510.3 853.2 505C817.7 499.7 782.3 492.3 746.8 486.8C711.3 481.3 675.7 477.7 640 484C604.3 490.3 568.7 506.7 533.2 510.3C497.7 514 462.3 505 426.8 503.2C391.3 501.3 355.7 506.7 320 510.2C284.3 513.7 248.7 515.3 213.2 515.3C177.7 515.3 142.3 513.7 106.8 508.3C71.3 503 35.7 494 17.8 489.5L0 485Z" fill="#1f2430"></path></svg>